<svg viewBox="0 0 400 400" xmlns="http://www.w3.org/2000/svg" role="img" aria-label="Twitter Bird in Mardi Gras colors">
  <defs>
    <linearGradient id="mardiGrasGradient" x1="0%" y1="0%" x2="100%" y2="100%">
      <stop offset="0%" stop-color="#6a0dad"></stop>   <!-- Purple -->
      <stop offset="50%" stop-color="#ffd700"></stop>  <!-- Gold -->
      <stop offset="100%" stop-color="#00a86b"></stop> <!-- Green -->
    </linearGradient>
  </defs>
  <path fill="url(#mardiGrasGradient)" d="M153.6,301.6c94,0,145.4-77.9,145.4-145.4c0-2.2,0-4.4-0.1-6.6
    c10-7.2,18.7-16.3,25.6-26.6c-9.2,4.1-19.1,6.9-29.5,8.2c10.6-6.3,18.7-16.4,22.5-28.4c-9.9,5.9-20.8,10.1-32.4,12.4
    c-9.3-9.9-22.4-16.1-37-16.1c-28,0-50.7,22.7-50.7,50.7c0,4,0.5,7.9,1.3,11.6c-42.1-2.1-79.5-22.3-104.5-53
    c-4.4,7.6-6.9,16.4-6.9,25.8c0,17.8,9.1,33.4,23.1,42.6c-8.4-0.3-16.3-2.6-23.2-6.4v0.6c0,24.9,17.7,45.7,41.2,50.5
    c-4.3,1.2-8.8,1.8-13.4,1.8c-3.3,0-6.5-0.3-9.6-0.9c6.5,20.4,25.4,35.3,47.8,35.7c-17.5,13.7-39.6,21.9-63.6,21.9
    c-4.1,0-8.2-0.2-12.2-0.7C97.4,293.4,124.4,301.6,153.6,301.6"></path>
</svg>
